<?xml version="1.0" encoding="UTF-8"?>
<svg id="Calque_2" data-name="Calque 2" xmlns="http://www.w3.org/2000/svg" viewBox="0 0 79.56 59.7">
  <defs>
    <style>
      .cls-1 {
        fill: #531010;
      }
    </style>
  </defs>
  <g id="Calque_1-2" data-name="Calque 1">
    <path class="cls-1" d="M79.49,56.28c-2.05.87-8.52,2.15-8.58-2.79.07-12.71-1.19-22.41-16.59-25.23,6.22-.87,10.9-2.48,14.03-4.85,6.45-4.22,6.08-15.9-.13-19.51C63.09-.06,47.15.19,34.95.36L2.73,0l-.79,15.81,2.46.03C7.06.15,18.92,2.38,31.27,2.52c0,0-.11,9.71-.11,9.71l-.16,14.39c-8.47.7-13.41-2.89-13.21-10.87l-2.46-.03-.27,24.52,2.46.03c-.07-8.26,4.66-12.43,13.46-11.45,0,0-.17,15.07-.17,15.07l-.14,12.96c-15.38-.03-26,1.84-28.11-17.01l-2.55-.03.58,18.9,21.57.24,28.35.32h.21s.02-2.19.02-2.19h-.21s-8.49-.1-8.49-.1c0,0,.31-28.03.31-28.03,0-.39,5.52-.09,6.1,0,1.49.22,2.96.65,4.26,1.42,2.23,1.32,3.59,3.52,4.35,5.95.83,2.64,1.06,5.43,1.33,8.17s.51,5.47,1.38,8.07c.8,2.38,2.24,4.47,4.51,5.64s4.87,1.36,7.35,1.48c.62.03,1.25.06,1.87.06,2.15-.02,6.72-.21,5.99-3.42ZM42.37,26.72l.27-24.08c.78.04,1.72.04,2.75.03l5.74.06c3.37.21,6.54.89,7.83,2.99,2.76,3.33,2.83,15.09-.73,18.28-2.76,3.69-11.31,2.69-15.85,2.72Z"/>
  </g>
</svg>