<?xml version="1.0" encoding="UTF-8"?>
<svg id="Calque_2" data-name="Calque 2" xmlns="http://www.w3.org/2000/svg" xmlns:xlink="http://www.w3.org/1999/xlink" viewBox="0 0 272.74 129.07">
  <defs>
    <style>
      .cls-1 {
        fill: #fff;
      }

      .cls-2 {
        fill: url(#Dégradé_sans_nom_262-2);
      }

      .cls-3 {
        fill: url(#Dégradé_sans_nom_262-8);
      }

      .cls-4 {
        fill: url(#Dégradé_sans_nom_262-5);
      }

      .cls-5 {
        fill: url(#Dégradé_sans_nom_262-11);
      }

      .cls-6 {
        fill: url(#Dégradé_sans_nom_262-9);
      }

      .cls-7 {
        fill: url(#Dégradé_sans_nom_262);
      }

      .cls-8 {
        fill: url(#Dégradé_sans_nom_262-4);
      }

      .cls-9 {
        fill: url(#Dégradé_sans_nom_262-10);
      }

      .cls-10 {
        fill: #010101;
      }

      .cls-11 {
        fill: url(#Dégradé_sans_nom_262-7);
      }

      .cls-12 {
        fill: url(#Dégradé_sans_nom_262-6);
      }

      .cls-13 {
        fill: url(#Dégradé_sans_nom_262-3);
      }
    </style>
    <linearGradient id="Dégradé_sans_nom_262" data-name="Dégradé sans nom 262" x1="21.6" y1="103.12" x2="36.6" y2="103.12" gradientUnits="userSpaceOnUse">
      <stop offset="0" stop-color="#e4bd55"/>
      <stop offset=".25" stop-color="#bf872e"/>
      <stop offset=".5" stop-color="#fcf5b2"/>
      <stop offset=".75" stop-color="#f6d87a"/>
      <stop offset="1" stop-color="#c79117"/>
    </linearGradient>
    <linearGradient id="Dégradé_sans_nom_262-2" data-name="Dégradé sans nom 262" x1="41.13" y1="105.16" x2="55.78" y2="105.16" xlink:href="#Dégradé_sans_nom_262"/>
    <linearGradient id="Dégradé_sans_nom_262-3" data-name="Dégradé sans nom 262" x1="70.92" y1="105.03" x2="104.47" y2="105.03" xlink:href="#Dégradé_sans_nom_262"/>
    <linearGradient id="Dégradé_sans_nom_262-4" data-name="Dégradé sans nom 262" x1="109.29" y1="105.06" x2="129.7" y2="105.06" xlink:href="#Dégradé_sans_nom_262"/>
    <linearGradient id="Dégradé_sans_nom_262-5" data-name="Dégradé sans nom 262" x1="134.71" y1="105.08" x2="157.89" y2="105.08" xlink:href="#Dégradé_sans_nom_262"/>
    <linearGradient id="Dégradé_sans_nom_262-6" data-name="Dégradé sans nom 262" x1="161.98" y1="105.01" x2="166.73" y2="105.01" xlink:href="#Dégradé_sans_nom_262"/>
    <linearGradient id="Dégradé_sans_nom_262-7" data-name="Dégradé sans nom 262" x1="170.63" y1="105.11" x2="187.58" y2="105.11" xlink:href="#Dégradé_sans_nom_262"/>
    <linearGradient id="Dégradé_sans_nom_262-8" data-name="Dégradé sans nom 262" x1="191.96" y1="105.06" x2="196.16" y2="105.06" xlink:href="#Dégradé_sans_nom_262"/>
    <linearGradient id="Dégradé_sans_nom_262-9" data-name="Dégradé sans nom 262" x1="200.41" y1="105.04" x2="215.21" y2="105.04" xlink:href="#Dégradé_sans_nom_262"/>
    <linearGradient id="Dégradé_sans_nom_262-10" data-name="Dégradé sans nom 262" x1="219.46" y1="105.41" x2="240.71" y2="105.41" xlink:href="#Dégradé_sans_nom_262"/>
    <linearGradient id="Dégradé_sans_nom_262-11" data-name="Dégradé sans nom 262" x1="38.58" y1="48.39" x2="59.59" y2="48.39" xlink:href="#Dégradé_sans_nom_262"/>
  </defs>
  <g id="Calque_1-2" data-name="Calque 1">
    <rect class="cls-10" width="272.74" height="129.07"/>
    <g>
      <g>
        <path class="cls-1" d="M108.11,85.25c-1.01.18-2.38.27-3.84.27-3.57,0-9.51-.73-12.16-4.48-2.01-2.93-3.38-7.4-4.02-12.25-1.01-8.14.09-18.28,4.02-25.41.64-1.1,1.83-1.37,2.65-1.37,2.19,0,7.77,2.38,8.04,5.03.09.27.09.55-.09.91-3.2,8.32-3.84,17.55-3.11,23.86.27,1.92.46,3.66.73,4.75.18.82.27,1.37.64,1.37,8.41-.18,19.84-17.55,20.11-33.09.09-2.29,4.3-3.84,7.04-3.84,4.21,0,4.66,2.74,4.94,5.12,1.65,13.53-11.7,36.84-24.96,39.13Z"/>
        <path class="cls-1" d="M159.22,85.92c-5.3,0-12.71-4.1-14.08-6.37-1.83-3.11-3.02-6.52-3.47-10.01-2.1-13.73,8.14-37.09,31.36-37.09,3.93,0,5.76,2.88,6.03,4.63.09.83,0,3.11-2.83,3.11-.37,0-.64-.08-1.01-.08-6.03,0-25.23,11.07-22.58,28.97.46,3.11,1.46,6.37,3.47,9.94,3.75-1.14,15.18-9.78,17.64-20.63-2.38.23-5.58.68-8.68,1.37-.37.08-.73.15-1.01.15-2.29,0-6.03-1.97-6.58-3.79-.18-1.37,16.46-6.3,19.11-6.6.55-.08,2.65-.15,4.57-.15,3.47,0,6.67,1.37,6.86,2.28,1.37,9.48-18.74,34.28-28.8,34.28Z"/>
        <path class="cls-1" d="M238.95,68.93c-4.11,7.62-16.46,16.79-26.97,16.79-7.4,0-11.52-3.9-13.16-6.26-.82-1.18-2.65-4.54-3.2-9.35-1.83-14.43,8.41-30.32,22.67-34.95,1.83-.64,3.75-.73,5.94-.73,1.28-2,4.39-2.45,6.49-2.45,1.83,0,4.66.73,6.77,2.09,4.39,2.9,5.94,7.9,6.4,12.07.91,6.9-.91,15.25-4.94,22.79ZM229.45,40.97c-.73-.36-1.92-.54-2.74-.64-2.01,1.36-4.39,2.63-6.95,4.72-7.41,5.9-14.17,18.25-13.07,27.69.27,2.09.91,4.9,3.84,4.9,8.32,0,14.81-8.08,17.83-13.89,3.29-6.17,4.21-13.07,3.66-17.52-.18-1.91-1.01-4.54-2.56-5.26Z"/>
        <g>
          <path class="cls-1" d="M34.27,74.74c.12,1.37.24,2.59.36,3.66.24,3.36.24,6.86-3.92,6.86-2.61,0-7.72-1.68-9.85-6.1-.83-1.83-1.31-5.19-1.54-8.39-1.54-16.17-1.42-55.23,1.54-60.87.71-1.53,2.14-1.98,3.32-1.98,3.68,0,9.5,4.88,10.09,9.92.24,1.98.24,8.7.24,15.71,0,6.25-.47,39.21-.24,41.19Z"/>
          <path class="cls-1" d="M80.19,27.25c-.24,5.21-.59,11.67-.71,17.5-.12,6.21.24,36.11-1.54,39.34-.71,1.37-2.14,1.86-3.32,1.86-2.85,0-10.21-3.97-10.68-7.94-.12-1.74-.36-6.58-.59-10.92l.24-14.4s.48-12.66.59-17.87c.12-10.05.48-21.72,1.54-24.82.59-1.86,2.61-2.23,3.56-2.23,3.32,0,10.57,3.48,11.16,8.07.12,1.74,0,6.33-.24,11.42Z"/>
        </g>
      </g>
      <g>
        <path class="cls-7" d="M36.39,109.44c-1.19,1.32-8.12,7-10.35,7-.88,0-2.07-.52-3.62-1.64-.47-.42-.83-7.75-.83-14.38,0-4.23.16-8.18.52-9.87.1-.52.57-.75,1.09-.75.78,0,1.76.47,2.23,1.32.88,1.64-.31,14.61,1.19,20.77,3.57-1.79,7.6-4.04,8.28-4.04.83,0,1.6.52,1.71,1.03,0,.19-.05.38-.21.56Z"/>
        <path class="cls-2" d="M44.43,98.2c-.19,1.82,0,8.07,0,8.07,1.71-.34,4.72-1.28,6.66-1.35h.22c2.01,0,3.87.91,3.91,1.31v.03c0,.37-1.08,1.08-1.97,1.08h-.33c-1.56,0-5.28.94-8.18,1.75-.11.34-.07,1.04.04,1.85.19,1.28.56,2.69.78,2.72h.04c.48,0,2.68-1.08,3.91-1.08.93,0,3.42.44,3.5.98.04.03,0,.07,0,.1-.37,1.04-5.73,2.29-6.47,2.62-.26.1-.63.17-1.08.17-.78,0-1.71-.2-2.23-.77-.93-1.04-1.45-2.93-1.75-5.08-.74-5.35.04-12.45.04-12.75v-.13c-.04-.2-.15-.5-.19-.81-.04-.24-.04-.5.11-.81.19-.37.67-.47,1.23-.47.41,0,.82.07,1.15.13,2.42-1.04,6.7-1.92,8.44-1.92.19,0,.37,0,.48.03,1.34.27,2.94.84,3.01,1.51.04,0,.04.03.04.03,0,.67-8.37,1.88-11.35,2.76Z"/>
        <path class="cls-13" d="M101.54,115.16c-.21,0-.41-.05-.51-.15-2.52-1.86-3.29-9.58-3.85-9.58-.87,0-6.63,6.92-8.17,8.88-.36.45-1.03.6-1.75.6-4.26,0-3.24-2.11-5.55-12.74-3.03,4.61-6.52,11.04-8.01,13.74-.15.3-.82.5-1.49.5-.72,0-1.28-.2-1.28-.7.21-1.4,9.04-18.56,10.28-20.16.87-1.1,2.16-1.91,3.13-1.91.51,0,.87.25,1.08.8.72,2.51.98,9.18,2.98,15.05,5.7-5.57,8.53-9.38,11.46-9.38.26,0,.51.05.67.15.77.55,3.96,10.58,3.96,12.94,0,.15-.05.25-.05.3-.15.75-1.9,1.66-2.88,1.66Z"/>
        <path class="cls-8" d="M127.63,116.37c-.29,0-.5-.04-.62-.22-.46-.47-1.86-7.07-2.6-8.91-3.72.98-10.5,1.85-10.5,1.85-.95,1.41-1.98,4.93-2.27,5.22-.08.07-.33.11-.7.11-.79,0-1.65-.22-1.65-1.12,0-3.55,8.72-18.41,9.38-18.73.99-.51,2.31-.8,3.31-.8.62,0,1.12.14,1.24.36,2.19,3.77,6.49,18.48,6.49,20.98,0,.18,0,.29-.04.33-.37.51-1.36.94-2.03.94ZM120.65,96.73c-.5.04-4.17,6.41-5.95,10.47,5.5-1.92,9.01-2.14,9.01-2.14,0,0-2.77-8.37-3.06-8.33Z"/>
        <path class="cls-4" d="M157.89,101.88c0,1.86-4.1,10.57-13.27,14.32-.35.13-.8.19-1.3.19-2.5,0-6.11-1.7-6.56-2.38-1.45-1.99-2.05-4.14-2.05-6.29,0-6.62,6.01-13.29,15.92-13.97,1.55,0,2.3.84,2.3,1.54,0,.26-.15.48-.5.48-.05,0-.1,0-.15-.03-3.3,0-13.82,4.01-13.82,12.14,0,.55.05,1.09.15,1.67.15.87,1.5,5.23,2.9,5.23,2.4,0,10.41-5.07,11.06-10.89-1.2.03-3.9.22-6.51.74-.05,0-.15.03-.25.03-.8,0-2.25-.71-2.35-1.06-.1-.48,8.31-2.06,9.61-2.15.3-.03,1.35-.1,2.35-.1,1.25,0,2.5.06,2.45.35v.16Z"/>
        <path class="cls-12" d="M165.93,116.06c-.19.15-.34.2-.48.2-.86,0-1.68-1.81-2.06-2.65-.19-.54-.43-1.76-.62-3.38-.67-5.44-1.01-15.14-.62-16.03.1-.29.62-.44,1.2-.44.96,0,2.2.39,2.59,1.23.19.44.34,1.23.43,2.21.67,5.54.38,18.13-.43,18.87Z"/>
        <path class="cls-11" d="M186.46,95.6c-8.24,2.14-11.9,7.33-11.9,9.89,0,4.1,7.35,7.42,12.18,9.5.38.15.7.6.7.9,0,.21-.47.57-1.69.57-.23,0-.52-.03-.8-.12-8.57-2.89-14.33-7.78-14.33-11.94,0-4.7,6.18-8.8,13.44-10.58.09-.03.23-.06.42-.06,1.03,0,3,.54,3.09,1.12,0,.27-.23.48-1.12.72Z"/>
        <path class="cls-3" d="M195.45,116.05c-.17.15-.3.19-.42.19-.76,0-1.48-1.8-1.82-2.63-.17-.54-.38-1.75-.55-3.36-.59-5.41-.89-15.06-.55-15.94.08-.29.55-.44,1.06-.44.85,0,1.95.39,2.29,1.22.17.44.3,1.22.38,2.19.59,5.51.34,18.03-.38,18.76Z"/>
        <path class="cls-6" d="M203.74,98.08c-.19,1.82,0,8.07,0,8.07,1.73-.34,4.77-1.28,6.73-1.35h.23c2.03,0,3.91.91,3.95,1.31v.03c0,.37-1.09,1.08-1.99,1.08h-.34c-1.58,0-5.34.94-8.27,1.75-.11.34-.08,1.04.04,1.85.19,1.28.56,2.69.79,2.72h.04c.49,0,2.71-1.08,3.95-1.08.94,0,3.46.44,3.53.98.04.03,0,.07,0,.1-.38,1.04-5.79,2.29-6.54,2.62-.26.1-.64.17-1.09.17-.79,0-1.73-.2-2.26-.77-.94-1.04-1.47-2.93-1.77-5.08-.75-5.35.04-12.45.04-12.75v-.13c-.04-.2-.15-.5-.19-.81-.04-.24-.04-.5.11-.81.19-.37.68-.47,1.24-.47.41,0,.83.07,1.17.13,2.44-1.04,6.77-1.92,8.54-1.92.19,0,.38,0,.49.03,1.35.27,2.97.84,3.05,1.51.04,0,.04.03.04.03,0,.67-8.46,1.88-11.47,2.76Z"/>
        <path class="cls-9" d="M240.71,98.12c.06,2.83-.69,8.04-.69,15.25,0,.78-1.73,1.5-2.82,1.5-1.15,0-10.76-10.03-13.99-12.7-.06.72-.06,1.61-.06,2.55,0,2.66.12,5.88.12,8.32,0,2,.06,3.44-.75,3.44-.86,0-2.36-1.39-2.82-2.77,0-.22-.17-14.97-.23-18.41,0-.61.81-.94,1.61-.94.35,0,.63.06.81.17.98.72,11.86,11.81,13.99,13.42.4,0,.58-11.53,1.09-12.75.17-.39.58-.55,1.09-.55.98,0,2.59.89,2.59,2.33,0,.33.06.72.06,1.16Z"/>
      </g>
      <polygon class="cls-5" points="49.08 62.25 38.58 47.95 49.08 34.53 59.59 47.95 49.08 62.25"/>
    </g>
  </g>
</svg>