<?xml version="1.0" encoding="UTF-8"?>
<svg id="Calque_2" data-name="Calque 2" xmlns="http://www.w3.org/2000/svg" viewBox="0 0 403.18 228.47">
  <defs>
    <style>
      .cls-1, .cls-2 {
        fill: #342336;
      }

      .cls-2 {
        font-family: VanillaWhale-Regular, 'Vanilla Whale';
        font-size: 82.98px;
      }
    </style>
  </defs>
  <g id="Calque_1-2" data-name="Calque 1">
    <g>
      <text class="cls-2" transform="translate(112.39 75.05)"><tspan x="0" y="0">Saddle </tspan></text>
      <g>
        <path class="cls-1" d="M201.95,207.51c-3.32,4.37-5.59,11.18-6.64,20.97h-65.35c-1.05-9.78-3.14-16.6-6.47-20.97h6.47v-99.77h-6.47c3.32-4.2,5.42-10.83,6.47-20.62h23.41c1.05,9.78,3.32,16.42,6.46,20.62h-6.46v99.77h18.52v-99.77h-6.29c3.14-4.2,5.41-10.83,6.29-20.62h23.41c1.05,9.78,3.32,16.42,6.64,20.62h-6.64v99.77h6.64Z"/>
        <path class="cls-1" d="M281.28,107.74v36.34c-16.25,0-34.41,9.43-41.93,22.71v40.71h6.47c-3.15,4.37-5.42,11.18-6.47,20.97h-23.41c-1.04-9.78-3.14-16.6-6.46-20.97h6.46v-99.77h-6.46c3.32-4.37,5.42-11.01,6.46-20.62h65.35c1.05,9.61,3.32,16.25,6.64,20.62h-6.64ZM257.87,107.74h-18.52v34.59c5.24-5.42,11.88-9.61,18.52-11.53v-23.06Z"/>
      </g>
      <path class="cls-1" d="M346.92,39.94c0,42.05-4.71,105.53-14.11,120.72h-12.48c-9.41-16.01-14.12-79.49-14.12-120.72h-8.7c4.71-7.06,7.53-17.64,8.7-32.01h40.71c1.41,14.38,4,24.96,8.71,32.01h-8.71ZM325.75,228.47c-11.3,0-20.48-10.31-20.48-23.33s8.95-23.6,20.48-23.6,20.47,10.85,20.47,23.6-8.94,23.33-20.47,23.33Z"/>
    </g>
  </g>
</svg>