<?xml version="1.0" encoding="UTF-8"?>
<svg id="Calque_2" data-name="Calque 2" xmlns="http://www.w3.org/2000/svg" viewBox="0 0 228.4 169.26">
  <defs>
    <style>
      .cls-1 {
        fill: #efe3cf;
      }
    </style>
  </defs>
  <g id="Calque_1-2" data-name="Calque 1">
    <path class="cls-1" d="M228.16,159.26c-5.85,2.55-24.33,6.42-24.67-7.71-.21-36.41-4.13-64.15-48.33-71.72,17.79-2.68,31.13-7.46,40.03-14.35,18.33-12.3,16.9-45.72-1.01-55.88C179.4-1.57,133.76-.33,98.84.54H6.55l-1.77,45.31h7.05C18.96.82,52.99,6.84,88.35,6.83c0,0,0,27.81.01,27.81v41.2c-24.23,2.27-38.49-7.84-38.18-30.71h-7.05v70.22h7.05c-.47-23.66,12.93-35.75,38.18-33.23,0,0,0,43.15-.01,43.15v37.11c-44.06.4-74.4,6.09-81.05-47.82H0l2.27,54.11h143.58v-6.29h-24.92v-80.29c0-1.12,15.8-.42,17.47-.2,4.27.58,8.51,1.76,12.26,3.92,6.42,3.7,10.39,9.97,12.64,16.89,2.45,7.53,3.2,15.52,4.06,23.35s1.64,15.66,4.22,23.06c2.37,6.79,6.55,12.73,13.09,16.02s14,3.72,21.09,4.01c1.79.07,3.58.14,5.37.11,6.17-.12,19.23-.81,17.04-9.99ZM120.93,75.8V6.83c2.23.1,4.92.07,7.87,0h16.44c9.65.48,18.77,2.33,22.51,8.31,8,9.46,8.6,43.13-1.51,52.36-7.79,10.65-32.31,8.07-45.31,8.3Z"/>
  </g>
</svg>