<?xml version="1.0" encoding="UTF-8"?>
<svg id="Calque_2" data-name="Calque 2" xmlns="http://www.w3.org/2000/svg" viewBox="0 0 265.41 143.69">
  <defs>
    <style>
      .cls-1 {
        fill: #6f150f;
      }
    </style>
  </defs>
  <g id="Calque_1-2" data-name="Calque 1">
    <g>
      <g>
        <path class="cls-1" d="M257.12,103.01c-1.96,2.58-3.3,6.6-3.92,12.38h-38.58c-.62-5.78-1.86-9.8-3.82-12.38h3.82v-58.9h-3.82c1.96-2.48,3.2-6.4,3.82-12.17h38.58c.62,5.78,1.96,9.7,3.92,12.17h-3.92v10.93c-2.17-1.65-4.54-2.48-7.22-2.48-2.48,0-4.74.83-6.6,2.48v-10.93h-10.93v22.59h10.93c0,7.01,6.71,14.54,13.82,14.54v21.77h3.92ZM239.38,103.01v-14.75c-3.61-.21-8.25-6.81-8.25-11.35h-2.68v26.1h10.93Z"/>
        <path class="cls-1" d="M27.45,108.05c-1.16,1.53-1.96,3.91-2.32,7.34H2.26c-.37-3.42-1.1-5.81-2.26-7.34h2.26v-34.91H0c1.16-1.47,1.9-3.79,2.26-7.21h22.87c.37,3.42,1.16,5.75,2.32,7.21h-2.32v6.73c-1.47-.86-2.75-1.35-3.97-1.35-1.28,0-2.63.49-4.22,1.35v-6.73h-6.48v34.91h6.48v-6.66c1.59.86,2.93,1.35,4.22,1.35s2.51-.49,3.97-1.35v6.66h2.32Z"/>
        <path class="cls-1" d="M50.02,69.84h-21.52v-3.91h21.52v3.91ZM50.02,115.39h-21.52v-3.91h21.52v3.91ZM48.79,102.91c-.86,1.04-1.35,2.75-1.59,5.14h-16.2c-.25-2.38-.8-4.1-1.59-5.14h1.59v-24.7h-1.59c.8-1.04,1.35-2.69,1.59-5.07h16.2c.24,2.38.73,4.04,1.59,5.07h-1.59v24.7h1.59ZM41.4,102.91v-24.7h-4.59v24.7h4.59Z"/>
        <path class="cls-1" d="M71.23,69.84h-21.4v-3.91h21.4v3.91ZM71.23,115.39h-21.4v-3.91h21.4v3.91ZM70.01,102.91c-.86,1.04-1.35,2.75-1.59,5.14h-16.2c-.25-2.38-.8-4.1-1.59-5.14h1.59v-24.7h-1.59c.8-1.04,1.35-2.69,1.59-5.07h5.81c.24,2.38.8,4.04,1.53,5.07h-1.53v24.7h4.59v-24.7h-1.59c.8-1.04,1.35-2.69,1.59-5.07h5.81c.24,2.38.73,4.04,1.59,5.07h-1.59v24.7h1.59Z"/>
        <path class="cls-1" d="M92.45,69.84h-21.52v-3.91h21.52v3.91ZM92.45,115.39h-21.52v-3.91h21.52v3.91ZM91.23,102.91c-.86,1.04-1.35,2.75-1.59,5.14h-5.81c-.25-2.38-.8-4.1-1.59-5.14h1.59v-1.1l-4.59-12.05v13.15h1.53c-.73,1.04-1.28,2.75-1.53,5.14h-5.81c-.25-2.38-.8-4.1-1.59-5.14h1.59v-24.7h-1.59c.8-1.04,1.35-2.69,1.59-5.07h5.81c.25,2.38.8,4.04,1.53,5.07h-1.35l4.4,11.31v-11.31h-1.59c.8-1.04,1.35-2.69,1.59-5.07h5.81c.25,2.38.73,4.04,1.59,5.07h-1.59v24.7h1.59Z"/>
        <path class="cls-1" d="M112.69,69.84h-20.54v-3.91h20.54v3.91ZM112.69,115.39h-20.54v-3.91h20.54v3.91ZM110.37,73.14c.24,2.32.8,3.97,1.59,5.07-.98,1.1-1.9,2.2-2.32,7.34h-.31c-.37-4.22-.86-7.34-4.16-7.34v24.7h1.53c-.79,1.04-1.28,2.81-1.53,5.14h-5.75c-.31-2.32-.86-4.1-1.65-5.14h1.65v-24.7c-3.3,0-3.79,3.12-4.22,7.34h-.31c-.43-5.14-1.28-6.24-2.32-7.34.8-1.1,1.41-2.75,1.59-5.07h16.2Z"/>
        <path class="cls-1" d="M133.91,69.84h-21.52v-3.91h21.52v3.91ZM133.91,115.39h-21.52v-3.91h21.52v3.91ZM132.68,102.91c-.86,1.04-1.35,2.75-1.59,5.14h-5.81c-.24-2.38-.73-4.1-1.59-5.14h1.59v-7.09c-1.65-.37-3.18-1.28-4.59-3v10.09h1.53c-.73,1.04-1.28,2.75-1.53,5.14h-5.81c-.24-2.38-.79-4.1-1.59-5.14h1.59v-24.7h-1.59c.8-1.1,1.35-2.75,1.59-5.07h16.2c.24,2.32.73,3.97,1.59,5.07h-1.59v8.56c-2.94,0-5.32.98-7.21,2.94,1.77,2.08,4.16,3.12,7.21,3.12v10.09h1.59ZM125.28,78.21h-4.59v8.56c1.28-1.28,2.93-2.45,4.59-2.87v-5.69Z"/>
        <path class="cls-1" d="M154.21,69.84h-20.61v-3.91h20.61v3.91ZM154.21,115.39h-20.61v-3.91h20.61v3.91ZM151.33,78.21l-4.71,15.22v9.48h1.53c-.79,1.04-1.28,2.75-1.53,5.14h-5.75c-.31-2.38-.86-4.1-1.65-5.14h1.65v-9.48l-4.65-15.22h-2.2c.8-1.04,1.41-2.69,1.59-5.07h5.81c.31,2.38.8,4.04,1.59,5.07h-1.77l2.51,9.36,2.51-9.36h-1.83c.8-1.04,1.41-2.69,1.59-5.07h5.81c.24,2.38.8,4.04,1.65,5.07h-2.14Z"/>
        <path class="cls-1" d="M209.08,103.01c-1.96,2.58-3.3,6.6-3.92,12.38h-38.58c-.62-5.78-1.86-9.8-3.82-12.38h3.82v-58.9h-3.82c1.96-2.48,3.2-6.4,3.82-12.17h38.58c.62,5.78,1.96,9.7,3.92,12.17h-3.92v10.93c-2.17-1.65-4.54-2.48-7.22-2.48-2.48,0-4.74.83-6.6,2.48v-10.93h-10.93v22.59h10.93c0,7.01,6.71,14.54,13.82,14.54v21.77h3.92ZM191.34,103.01v-14.75c-3.61-.21-8.25-6.81-8.25-11.35h-2.68v26.1h10.93Z"/>
        <g>
          <path class="cls-1" d="M43.47,57.47c2.38-1.35,6.3-1.25,9.01-1.65,8.09-1.19,16.05-3.33,23.66-6.33,3.55-1.4,6.98-3.01,10.36-4.78,3.4-1.78,6.99-3.48,10.92-3.18,5.3.4,10.09,3.69,14.09,6.95,4.47,3.64,9.32,6.22,15.09,7.08,2.44.37,5.82.24,7.86,1.76-.94.74-3,.55-4.19.61-3.07.16-6.15.2-9.22.24-7.49.1-14.98.07-22.47.03-2.44-.02-4.89-.03-7.33-.06-8.01-.07-16.02-.04-24.03-.08-4.01-.02-8.01-.06-12.02-.13-3.62-.07-8.27.52-11.73-.46Z"/>
          <path class="cls-1" d="M144.02,48.68c-.37-1.77-1.48-3.28-2.63-4.68-2.96-3.6-6.33-6.84-9.82-9.92-2.29-2.02-6.39-6.93-9.45-3.4-1.08,1.25-1.21,2.91-1.24,4.49-.03,1.63.13,3.34-.74,4.8-.13.21-.27.42-.48.55-.44.28-1.07.14-1.42-.24-.28-.31-.4-.72-.47-1.13-.19-1.1-.09-2.23-.13-3.34-.04-1.1-.06-2.19-.11-3.29-.06-2.24-.13-4.47-.19-6.71-.06-2.15-.12-4.29-.18-6.44-.12-4.1-.3-9-2.71-12.5-3.86-5.63-10.27-1.4-14.68,1.1-2.71,1.53-5.92,2.78-8.89,1.83-2.41-.77-4.15-2.84-5.57-4.92-.99-1.45-1.93-2.99-3.35-4.01-2.5-1.78-5.35-.5-7.6,1.07-4.43,3.09-6.93,8.52-9.05,13.29-2.52,5.68-5.41,11.2-8.17,16.76-.89,1.8-1.79,3.94-.88,5.73.7,1.37,2.24,2.04,3.46,2.98,3.61,2.76.43,5.26-2.99,4.67-2.98-.51-8.57-.97-9.46-4.67-1-4.14,3.78-9.46,5.7-12.59.41-.67.83-1.5.47-2.2-.05-.09-.1-.17-.17-.24-.41-.47-1.16-.59-1.82-.62-6.49-.32-12.52,2.27-18.09,5.37-1.83,1.02-3.67,2.12-5.08,3.67-5.61,6.17-.79,14.66,5.69,17.37,5.9,2.47,13.36,2.83,19.53,1.18,4.55-1.22,8.83-3.27,13.04-5.37,6.37-3.18,12.75-6.53,19.67-8.37,6.93-1.84,16.03-2.44,22.5,1.1,3.34,1.83,6.07,4.57,9.12,6.84,5.77,4.29,12.77,6.88,19.94,7.39,3.48.25,7.09-1.48,6.25-5.56ZM44.59,33.24l-.07.08c-1.14,1.01-3.1,1.24-4.31,2.36-2.2,1.63-3.11,5.54-1.04,7.1.97.9,2.79,1.75,3.55,2.65,1.24,1.46-1.08,2.25-2.46,2.09-8.67-1.38-7.21-13.82.59-15.69,1.12-.46,4.71-.28,3.75,1.4ZM110.25,30.09c-.93,1.74-2.74,1.36-3.19-1.04-.94-2.32.27-15.39-4.2-12.71-2.7,1.96-4.84,4.36-8.6,6.02-3.37,1.53-7.93,1.71-10.73-.5-1.65-1.24-3.34-3.32-4.94-4.61-.45-.34-.84-.54-1.35-.56-1.48-.1-2.49,1.71-3.6,1.86h-.05c-.83-.6.49-3.24,2.05-4.28.67-.45,1.44-.71,2.23-.84,4.82-.72,6.92,5.28,11.15,6.44,2.2.66,4.54.03,6.17-1.02,2.47-2,3.96-5.01,7.01-6.47,1.93-1.01,4.49-1.29,6.16.18,1.22,1.16,1.31,2.87,1.85,5.99.42,3.53,1.48,8.35.02,11.55ZM134.7,46.8c-.9,1.31-2.7,1.78-4.01,1.81-1.35.02-2.18.01-2.53-.7-.6-1.72,2.24-1.74,3.11-2.63,1.73-1.48,1.39-3.96.52-5.9v-.06c-.05-.22.31.02.91.58,1.8,1.53,3.73,4.6,1.99,6.91Z"/>
        </g>
      </g>
      <g>
        <path class="cls-1" d="M243.41,129.94h8.75v1.83h-3.48v11.3h-1.9v-11.3h-3.37v-1.83Z"/>
        <path class="cls-1" d="M256.01,129.94l3.66,9.15,3.5-9.15h2.24l-5.83,13.75-5.83-13.75h2.26Z"/>
      </g>
      <circle class="cls-1" cx="236.21" cy="136.36" r="3.94"/>
    </g>
  </g>
</svg>